<?xml version="1.0" standalone="no"?>
<!DOCTYPE svg PUBLIC "-//W3C//DTD SVG 20010904//EN"
 "http://www.w3.org/TR/2001/REC-SVG-20010904/DTD/svg10.dtd">
<svg version="1.0" xmlns="http://www.w3.org/2000/svg"
 width="500.000000pt" height="500.000000pt" viewBox="0 0 500.000000 500.000000"
 preserveAspectRatio="xMidYMid meet">

<g transform="translate(0.000000,500.000000) scale(0.100000,-0.100000)"
fill="#000000" stroke="none">
<path d="M2305 4994 c-314 -34 -532 -87 -775 -190 -453 -191 -841 -513 -1115
-925 -86 -129 -217 -386 -269 -530 -156 -426 -186 -925 -86 -1394 75 -349 261
-732 497 -1025 88 -109 265 -286 373 -373 205 -164 470 -316 703 -401 421
-155 910 -193 1352 -105 1010 201 1803 1017 1975 2032 56 335 40 711 -45 1042
-134 521 -439 991 -860 1328 -355 283 -741 451 -1205 522 -101 15 -460 28
-545 19z m440 -159 c293 -31 517 -96 790 -230 654 -321 1123 -930 1264 -1640
64 -324 59 -684 -16 -1000 -76 -322 -229 -641 -442 -915 -97 -125 -302 -326
-432 -422 -241 -178 -461 -290 -733 -372 -226 -69 -360 -89 -636 -93 -274 -5
-401 9 -633 67 -312 79 -630 241 -892 453 -185 150 -403 399 -523 598 -216
360 -323 725 -339 1149 -30 840 397 1630 1125 2078 429 264 953 381 1467 327z"/>
<path d="M2350 3769 c-434 -34 -902 -151 -1205 -300 -272 -133 -445 -287 -445
-394 0 -67 77 -129 191 -154 67 -15 322 -18 326 -4 4 12 -36 18 -197 29 -164
10 -259 65 -246 142 28 176 462 418 968 542 736 180 1382 129 1484 -116 52
-125 -47 -297 -291 -504 l-82 -69 -44 22 c-63 31 -246 30 -369 -2 -242 -64
-540 -217 -760 -389 -35 -28 -66 -50 -67 -48 -2 2 56 146 228 558 111 268 150
404 120 422 -30 19 -48 -5 -74 -99 -15 -52 -72 -206 -128 -342 -55 -136 -132
-327 -171 -423 -38 -96 -77 -182 -86 -192 -10 -9 -80 -40 -157 -68 -582 -217
-931 -426 -902 -542 24 -95 291 -52 718 115 534 210 937 413 1369 691 110 70
136 83 220 103 52 13 98 23 103 23 14 0 6 -80 -18 -171 -51 -196 -154 -421
-353 -774 -46 -82 -120 -214 -164 -292 -47 -83 -78 -149 -74 -158 3 -8 16 -15
30 -15 21 0 45 31 159 198 209 308 522 742 548 757 17 11 20 0 9 -31 -41 -107
-140 -431 -140 -459 0 -33 13 -45 50 -45 19 0 48 31 226 240 262 309 501 552
689 703 190 153 458 320 548 342 105 26 66 -133 -127 -522 -219 -442 -393
-757 -623 -1127 -67 -110 -123 -208 -123 -218 0 -10 7 -18 18 -18 17 0 107
131 307 450 163 260 330 561 489 880 161 325 208 462 185 544 -30 107 -183 82
-414 -68 -44 -28 -74 -41 -79 -35 -15 14 -92 11 -291 -11 -213 -24 -417 -52
-612 -86 -78 -13 -148 -24 -156 -24 -7 0 -19 17 -26 37 -12 33 -12 38 5 50 66
48 197 171 260 242 97 113 138 195 138 281 0 76 -14 107 -74 168 -134 133
-470 194 -890 161z m413 -834 c20 -10 37 -22 37 -26 0 -12 -153 -126 -191
-144 -19 -8 -117 -35 -219 -61 -219 -54 -419 -110 -588 -165 -68 -23 -125 -39
-128 -36 -2 2 22 24 53 49 227 177 555 345 768 392 90 20 217 16 268 -9z
m1222 -3 c-6 -5 -62 -47 -125 -94 -221 -163 -324 -262 -634 -613 -121 -137
-236 -265 -253 -285 l-33 -35 66 195 c35 107 72 226 80 263 15 64 15 70 -2 88
-9 10 -26 19 -37 19 -28 0 -102 -79 -211 -222 -49 -65 -92 -118 -97 -118 -4 0
17 55 47 121 96 213 159 430 151 514 -2 18 10 22 111 42 201 40 642 104 842
122 47 5 89 9 95 10 5 0 5 -2 0 -7z m-1135 -102 c0 -14 -9 -21 -35 -26 -48 -9
-52 -1 -13 25 41 26 48 26 48 1z m-385 -160 c-12 -20 -382 -234 -570 -331
-171 -88 -426 -209 -440 -209 -14 0 -1 41 46 143 28 62 60 120 71 129 31 28
495 174 828 262 69 18 73 18 65 6z m-1015 -330 c-37 -52 -82 -163 -85 -209
l-3 -45 -159 -64 c-370 -149 -661 -225 -679 -178 -3 8 2 28 10 44 50 96 356
263 811 441 124 49 133 50 105 11z"/>
</g>
</svg>
